<svg width="24" height="24" viewBox="0 0 24 24" fill="none" xmlns="http://www.w3.org/2000/svg">
    <circle cx="12" cy="12" r="3" stroke="#333333" stroke-width="2"/>
    <path d="M19.4 15C19.5306 14.5126 19.6373 14.0185 19.7196 13.5186C20.9234 13.6264 21.9427 14.288 22.4573 15.3172C22.6176 15.6378 22.5855 16.0229 22.3736 16.3115L21.3736 17.6775C21.1617 17.9661 20.7844 18.1132 20.4373 18.0427L18.819 17.7137C18.2536 18.5756 17.5276 19.3286 16.6784 19.9324L17.1118 21.5275C17.2044 21.8686 17.0697 22.2335 16.7766 22.4338L15.2766 23.4588C14.9836 23.6591 14.5976 23.6289 14.3364 23.3855L13.1166 22.2486C12.3813 22.3486 11.6187 22.3486 10.8834 22.2486L9.6636 23.3855C9.40243 23.6289 9.01639 23.6591 8.72336 23.4588L7.22336 22.4338C6.93034 22.2335 6.79558 21.8686 6.88824 21.5275L7.32158 19.9324C6.47242 19.3286 5.74639 18.5756 5.18096 17.7137L3.5627 18.0427C3.21556 18.1132 2.83827 17.9661 2.62638 17.6775L1.62638 16.3115C1.41449 16.0229 1.38237 15.6378 1.54271 15.3172C2.05731 14.288 3.07659 13.6264 4.28045 13.5186C4.36267 14.0185 4.46944 14.5126 4.6 15M19.4 9C19.5306 9.48744 19.6373 9.98151 19.7196 10.4814C20.9234 10.3736 21.9427 9.71196 22.4573 8.68278C22.6176 8.36219 22.5855 7.97708 22.3736 7.68853L21.3736 6.32253C21.1617 6.03398 20.7844 5.88682 20.4373 5.95734L18.819 6.2863C18.2536 5.42436 17.5276 4.67144 16.6784 4.06764L17.1118 2.47253C17.2044 2.13144 17.0697 1.76654 16.7766 1.56621L15.2766 0.541209C14.9836 0.340881 14.5976 0.371131 14.3364 0.61446L13.1166 1.75137C12.3813 1.6514 11.6187 1.6514 10.8834 1.75137L9.6636 0.61446C9.40243 0.371131 9.01639 0.340881 8.72336 0.541209L7.22336 1.56621C6.93034 1.76654 6.79558 2.13144 6.88824 2.47253L7.32158 4.06764C6.47242 4.67144 5.74639 5.42436 5.18096 6.2863L3.5627 5.95734C3.21556 5.88682 2.83827 6.03398 2.62638 6.32253L1.62638 7.68853C1.41449 7.97708 1.38237 8.36219 1.54271 8.68278C2.05731 9.71196 3.07659 10.3736 4.28045 10.4814C4.36267 9.98151 4.46944 9.48744 4.6 9" stroke="#333333" stroke-width="2" stroke-linecap="round" stroke-linejoin="round"/>
</svg>